<svg xmlns="http://www.w3.org/2000/svg" xmlns:xlink="http://www.w3.org/1999/xlink" width="265" height="265" viewBox="0 0 265 265">
  <defs>
    <linearGradient id="linear-gradient" x1="0.153" y1="0.409" x2="0.903" y2="0.414" gradientUnits="objectBoundingBox">
      <stop offset="0" stop-color="#028178"/>
      <stop offset="1" stop-color="#346e7d"/>
    </linearGradient>
  </defs>
  <g id="cb-logo" transform="translate(-8745 -1483)">
    <g id="Grupo_12" data-name="Grupo 12">
      <path id="Caminho_35" data-name="Caminho 35" d="M132.5,0A132.5,132.5,0,1,1,0,132.5,132.5,132.5,0,0,1,132.5,0Z" transform="translate(8745 1483)" fill="#fff"/>
      <path id="Caminho_34" data-name="Caminho 34" d="M222.05,233.8a54.147,54.147,0,0,1-28-7.3,53.473,53.473,0,0,1-19.6-19.9,57.73,57.73,0,0,1-7.4-28.4V87a9.816,9.816,0,0,1,2.9-7.4,10.157,10.157,0,0,1,17.5,7.4v54a51.46,51.46,0,0,1,16.9-13.3,50.592,50.592,0,0,1,47.9,2.4,51.879,51.879,0,0,1,18.3,19.8,58.953,58.953,0,0,1,6.7,28.3,55.608,55.608,0,0,1-7.3,28.4,53.826,53.826,0,0,1-47.9,27.2Zm0-18a34.139,34.139,0,0,0,18.2-4.9,35.392,35.392,0,0,0,12.7-13.5,39.371,39.371,0,0,0,4.7-19.2,38.646,38.646,0,0,0-4.7-19.2,35.8,35.8,0,0,0-12.7-13.3,36.064,36.064,0,0,0-36.3,0,34.789,34.789,0,0,0-12.7,13.3,39.318,39.318,0,0,0-4.6,19.2,40.057,40.057,0,0,0,4.6,19.2,34.234,34.234,0,0,0,30.8,18.4Z" transform="translate(8594.048 1646.448) rotate(-45)" fill="url(#linear-gradient)"/>
      <path id="Caminho_33" data-name="Caminho 33" d="M124.15,233.9a9.9,9.9,0,0,1-2.9-7.3v-54a49.2,49.2,0,0,1-38.6,18.2,48.162,48.162,0,0,1-26.2-7.3,51.881,51.881,0,0,1-18.3-19.8,58.953,58.953,0,0,1-6.7-28.3,55.611,55.611,0,0,1,7.3-28.4,54,54,0,0,1,19.8-19.9,54.68,54.68,0,0,1,28.1-7.3,53.813,53.813,0,0,1,47.7,27.2,55.611,55.611,0,0,1,7.3,28.4v91.2a10.087,10.087,0,0,1-2.8,7.3,9.569,9.569,0,0,1-7.2,2.9A10.149,10.149,0,0,1,124.15,233.9Zm-55.6-131.2a35.345,35.345,0,0,0-12.8,13.4,39.214,39.214,0,0,0-4.7,19.3,38.81,38.81,0,0,0,4.7,19.1,35.345,35.345,0,0,0,12.8,13.4,34.292,34.292,0,0,0,18.1,4.9,34.144,34.144,0,0,0,18.2-4.9,34.845,34.845,0,0,0,12.6-13.4,39.484,39.484,0,0,0,4.6-19.1,39.9,39.9,0,0,0-4.6-19.3,34.845,34.845,0,0,0-12.6-13.4,34.136,34.136,0,0,0-18.2-4.9A34.284,34.284,0,0,0,68.549,102.7Z" transform="translate(8720.62 1580.687) rotate(-45)" fill="url(#linear-gradient)"/>
    </g>
  </g>
</svg>
